<svg width="56" height="56" viewBox="0 0 56 56" fill="none" xmlns="http://www.w3.org/2000/svg">
<circle cx="28" cy="28" r="28" fill="white"/>
<circle cx="28" cy="28" r="27.75" stroke="#12121D" stroke-opacity="0.1" stroke-width="0.5"/>
<path d="M38 33.607C37.214 35.887 34.861 39.924 32.437 39.968C30.829 39.999 30.312 39.015 28.474 39.015C26.637 39.015 26.062 39.938 24.542 39.998C21.97 40.097 18 34.171 18 29.003C18 24.256 21.308 21.903 24.198 21.86C25.748 21.832 27.212 22.905 28.157 22.905C29.106 22.905 30.884 21.615 32.753 21.804C33.535 21.837 35.732 22.119 37.142 24.181C33.401 26.623 33.984 31.73 38 33.607ZM32.778 16C29.952 16.114 27.646 19.079 27.968 21.531C30.58 21.734 33.086 18.806 32.778 16Z" fill="#12121D"/>
</svg>
