<svg width="56" height="56" viewBox="0 0 56 56" fill="none" xmlns="http://www.w3.org/2000/svg">
<circle cx="28" cy="28" r="28" fill="white"/>
<circle cx="28" cy="28" r="27.75" stroke="#12121D" stroke-opacity="0.1" stroke-width="0.5"/>
<path fill-rule="evenodd" clip-rule="evenodd" d="M40 28.073C40 21.4058 34.6269 16 28 16C21.3731 16 16 21.4058 16 28.073C16 34.0984 20.3876 39.0933 26.1252 40V31.5636H23.0775V28.073H26.1252V25.4125C26.1252 22.387 27.9173 20.7147 30.6578 20.7147C31.9707 20.7147 33.3444 20.9507 33.3444 20.9507V23.9219H31.8306C30.3406 23.9219 29.8748 24.8523 29.8748 25.8081V28.0729H33.2026L32.671 31.5636H29.8747V39.9999C35.6123 39.0949 39.9999 34.1 39.9999 28.0729L40 28.073Z" fill="#1977F3"/>
</svg>
