<svg width="56" height="56" viewBox="0 0 56 56" fill="none" xmlns="http://www.w3.org/2000/svg">
<circle cx="28" cy="28" r="28" fill="white"/>
<circle cx="28" cy="28" r="27.75" stroke="#12121D" stroke-opacity="0.1" stroke-width="0.5"/>
<path d="M37.8055 26.0415H37V26H28V30H33.6515C32.827 32.3285 30.6115 34 28 34C24.6865 34 22 31.3135 22 28C22 24.6865 24.6865 22 28 22C29.5295 22 30.921 22.577 31.9805 23.5195L34.809 20.691C33.023 19.0265 30.634 18 28 18C22.4775 18 18 22.4775 18 28C18 33.5225 22.4775 38 28 38C33.5225 38 38 33.5225 38 28C38 27.3295 37.931 26.675 37.8055 26.0415Z" fill="#FFC107"/>
<path d="M19.1532 23.3455L22.4387 25.755C23.3277 23.554 25.4807 22 28.0002 22C29.5297 22 30.9212 22.577 31.9807 23.5195L34.8092 20.691C33.0232 19.0265 30.6342 18 28.0002 18C24.1592 18 20.8282 20.1685 19.1532 23.3455Z" fill="#FF3D00"/>
<path d="M27.9999 38C30.5829 38 32.9299 37.0115 34.7044 35.404L31.6094 32.785C30.5717 33.5742 29.3036 34.001 27.9999 34C25.3989 34 23.1904 32.3415 22.3584 30.027L19.0974 32.5395C20.7524 35.778 24.1134 38 27.9999 38Z" fill="#4CAF50"/>
<path d="M37.8055 26.0416H37V26.0001H28V30.0001H33.6515C33.2571 31.1083 32.5467 32.0767 31.608 32.7856L31.6095 32.7846L34.7045 35.4036C34.4855 35.6026 38 33.0001 38 28.0001C38 27.3296 37.931 26.6751 37.8055 26.0416Z" fill="#1976D2"/>
</svg>
