<svg width="9" height="15" viewBox="0 0 9 15" fill="none" xmlns="http://www.w3.org/2000/svg">
<path d="M1.27539 9.52237C1.27539 9.52237 2.19019 12.6628 2.71092 13.3331C3.07901 13.8059 3.64954 14.3404 5.14245 13.9824C5.14245 13.9824 6.30842 13.8342 7.7537 12.5677C7.7537 12.5677 8.63061 11.9233 8.72154 10.6692C8.79083 9.72605 8.81357 6.16965 8.81357 6.16965C8.81357 6.16965 8.67608 5.28333 7.42025 5.28333C6.16335 5.28333 4.42144 6.22026 3.10391 7.10165C1.7853 7.98427 1.27539 9.52237 1.27539 9.52237Z" fill="#FCC21B"/>
<path d="M2.56094 7.48558C3.74748 6.60667 4.82251 6.09561 5.54136 5.7475C5.54136 5.7475 7.2627 4.86859 8.20673 5.53024C8.20673 5.53024 9.33155 6.47458 7.33848 7.92134C5.36273 9.35452 4.04736 9.89643 4.04736 9.89643C4.04736 9.89643 2.34659 10.6766 1.65372 9.58536C1.22068 8.90025 1.75224 8.08429 2.56094 7.48558Z" fill="white"/>
<path d="M2.83576 10.5026C2.20677 10.5026 1.71635 10.2544 1.41755 9.78289C1.23675 9.49774 1.16963 9.16815 1.22484 8.82991C1.3147 8.27812 1.73259 7.7004 2.40055 7.2054C3.58276 6.32895 4.66211 5.80925 5.37772 5.46361L5.42752 5.43892C5.46108 5.42164 6.39861 4.94885 7.31017 4.94885C7.72805 4.94885 8.08206 5.04884 8.36246 5.24512C8.37004 5.25005 8.37653 5.25499 8.38303 5.26116C8.55191 5.40312 8.83339 5.7821 8.81823 6.30426C8.79983 6.9437 8.35488 7.58437 7.49854 8.20529C5.51737 9.64217 4.20417 10.1903 4.14896 10.2125C4.13272 10.2199 3.51022 10.5026 2.83576 10.5026ZM7.31017 5.62038C6.52636 5.62038 5.6711 6.04997 5.66244 6.0549L5.60723 6.08206C4.91111 6.41659 3.8599 6.92395 2.72209 7.76706C2.2046 8.14974 1.8625 8.5929 1.80404 8.95089C1.77806 9.11136 1.8062 9.24962 1.89498 9.38788C2.08119 9.68167 2.39731 9.83104 2.83576 9.83104C3.39763 9.83104 3.9346 9.58785 3.94002 9.58662C3.96275 9.57674 5.26188 9.03236 7.18242 7.63868C7.84605 7.15725 8.21847 6.67459 8.23038 6.28204C8.23796 6.01787 8.07448 5.84258 8.04092 5.80802C7.85472 5.68334 7.60896 5.62038 7.31017 5.62038Z" fill="#FCC21B"/>
<path d="M3.49856 9.10519C2.96484 9.43602 2.6249 9.20765 2.4008 8.95089C2.17453 8.69289 1.39181 7.33254 1.11466 6.21785C0.639401 4.31435 0.934952 1.74426 3.44443 0.503658C7.174 -1.33812 7.82248 2.38 7.84089 3.51074C7.85713 4.51433 7.73154 6.07836 7.672 6.35734C7.62978 6.55362 7.60813 6.7968 7.18375 6.99925C6.97156 7.10047 6.56125 7.0227 6.42376 6.78939C6.10764 6.25241 7.15127 0.840658 4.14163 2.52443C1.38315 4.06747 3.77138 8.18677 3.77138 8.18677C3.77138 8.18677 4.03445 8.77313 3.49856 9.10519Z" fill="#78A3AD"/>
<path d="M6.7436 10.1803C6.61693 9.90505 6.21961 9.89765 5.85586 10.1643C5.49319 10.4309 5.30265 10.8704 5.42931 11.1457C5.51592 11.3345 5.73028 11.3938 5.9717 11.3296L5.87102 12.1888L6.6808 11.7061L6.39608 11.0938C6.70462 10.8259 6.86052 10.4346 6.7436 10.1803Z" fill="#2F2F2F"/>
</svg>
