<svg width="130" height="115" viewBox="0 0 130 115" fill="none" xmlns="http://www.w3.org/2000/svg">
<path d="M65.7288 106.961C110.219 106.467 131.402 92.8546 129.275 66.1302C126.085 26.0445 92.5302 34.2575 81.2198 24.8918C69.9084 15.5262 86.2824 31.3195 61.0096 9.60339C44.1611 -4.87471 27.6972 -2.98207 11.6168 15.2791C-3.12128 32.9369 -3.07686 51.7907 11.7479 71.8384C26.5738 91.885 44.5674 103.593 65.7288 106.961Z" fill="#DD88CF"/>
<path d="M28.4941 108.127H95.6628V8.45703H28.4941V108.127ZM93.014 45.7411V73.2976V107.043H32.8276V11.8523H93.014V45.7411Z" fill="white"/>
<path d="M32.8286 107.044H93.0139V73.2986V45.741V11.8512H32.8286V107.044Z" fill="#730075"/>
<path d="M93.4473 12.9562L96.5858 9.80683C96.9671 9.42549 96.9661 8.80797 96.5847 8.42771C96.2034 8.04745 95.5858 8.04853 95.2056 8.42988L92.0671 11.5792C91.6857 11.9606 91.6868 12.5781 92.0692 12.9583C92.4495 13.3386 93.067 13.3375 93.4473 12.9562Z" fill="#730075"/>
<path d="M31.287 12.9562L28.1463 9.80683C27.7661 9.42549 27.7672 8.80797 28.1485 8.42771C28.5298 8.04745 29.1474 8.04853 29.5276 8.42988L32.6683 11.5792C33.0486 11.9606 33.0475 12.5781 32.6661 12.9583C32.2848 13.3386 31.6673 13.3375 31.287 12.9562Z" fill="#730075"/>
<path d="M114.035 106.998H83.7455H81.7673H24.2416L24.1181 107.005C23.6382 107.065 23.2666 107.475 23.2666 107.972C23.2666 108.51 23.7032 108.948 24.2416 108.948H81.7673H83.7455H114.035L114.157 108.94C114.639 108.879 115.008 108.469 115.008 107.972C115.008 107.433 114.574 106.998 114.035 106.998Z" fill="#730075"/>
<path d="M19.8738 106.998H14.457L14.3345 107.005C13.8535 107.065 13.4819 107.475 13.4819 107.972C13.4819 108.51 13.9185 108.948 14.457 108.948H19.8738L19.9962 108.94C20.4772 108.879 20.8488 108.469 20.8488 107.972C20.8488 107.433 20.4122 106.998 19.8738 106.998Z" fill="#730075"/>
<path d="M96.8019 76.088L117.016 60.7681L96.8019 45.3507V53.3784H95.8269H68.7915V68.0548H96.8019V76.088Z" fill="#DD88CF"/>
<path d="M120.237 60.7735L94.8496 41.4116V51.4284H68.7925V52.4035V53.3785H95.8257H96.7997V45.3518L117.014 60.7681L96.7997 76.088V68.0559H68.7925V69.0309V70.006H94.8496V80.0119L120.237 60.7735Z" fill="white"/>
<path d="M33.1699 12.7917V106.443L37.7255 106.998L78.8522 113.005L77.5164 7.104L33.1699 12.7917Z" fill="white"/>
<path d="M33.1689 12.6216V67.7476L67.3621 8.59802L33.1689 12.6216Z" fill="#FFE2FA"/>
<path d="M79.8178 112.347L79.8189 7.1311L76.1636 7.5612L76.1755 112.215L79.8178 112.347Z" fill="#730075"/>
<path d="M31.7452 10.625L68.6923 6.47785C69.2285 6.41501 69.7128 6.79852 69.7756 7.33262V7.33479C69.8363 7.86997 69.456 8.35099 68.9209 8.41382L67.3608 8.59799L33.1676 12.6216V67.7476V106.444L37.7243 106.998L53.7559 108.948L76.1632 111.673L79.8184 112.118V108.948V106.998V7.1322L76.1632 7.5623L72.8795 7.94906C72.3454 8.01189 71.8611 7.62946 71.7972 7.09645V7.09428C71.7333 6.56018 72.1157 6.07484 72.6498 6.012L81.7674 4.94055V106.41V106.998V108.948V109.382L81.7349 114.658L31.7452 108.128L31.2197 106.998V12.7462L31.7452 10.625Z" fill="#730075"/>
<path d="M72.0377 63.7002V57.8316C72.0377 56.953 70.9598 54.9531 69.1235 54.9163C67.2871 54.8794 66.207 56.2217 66.207 57.8316V63.7002C66.207 65.1757 67.4724 66.6047 69.1235 66.6166C70.7745 66.6285 72.0377 65.3101 72.0377 63.7002Z" fill="#730075"/>
<path d="M70.5211 62.5084V56.6398C70.5211 55.7612 69.4432 53.7613 67.6069 53.7245C65.7705 53.6877 64.6904 55.03 64.6904 56.6398V62.5084C64.6904 63.984 65.9558 65.4129 67.6069 65.4248C69.2579 65.4368 70.5211 64.1183 70.5211 62.5084Z" fill="#730075"/>
<path d="M111.597 19.6684C110.055 19.6684 108.807 18.4182 108.807 16.8771C108.807 15.336 110.055 14.0858 111.597 14.0858C113.138 14.0858 114.387 15.336 114.387 16.8771C114.387 18.4182 113.138 19.6684 111.597 19.6684ZM111.597 18.0775C112.256 18.0775 112.792 17.5408 112.792 16.8771C112.792 16.2134 112.256 15.6767 111.597 15.6767C110.937 15.6767 110.401 16.2134 110.401 16.8771C110.401 17.5408 110.937 18.0775 111.597 18.0775Z" fill="#9B139D"/>
<path d="M19.0877 97.9218L17.2456 98.9045L15.6374 95.8882L12.6161 97.5L11.6333 95.6579L14.6535 94.0457L13.0449 91.0305L14.8875 90.0466L16.4956 93.0629L19.5166 91.4523L20.4994 93.2944L17.4792 94.9066L19.0877 97.9218Z" fill="#730075"/>
</svg>
